# xmcd CD database file
#
# Track frame offsets:
#	150
#	29162
#	51452
#	71925
#	96732
#	136307
#	159260
#	174222
#	199217
#	218702
#	248037
#	276695
#	297255
#
# Disc length: 4453 seconds
#
# Revision: 0
# Processed by: cddbd v1.4PL0 Copyright (c) Steve Scherf et al.
# Submitted via: CDex 1.50beta10
#
DISCID=d711630d
DTITLE=Tim Whitmer - Humorous Intentions
DYEAR=1992
DGENRE=Jazz
TTITLE0=Let the Good Times Roll
TTITLE1=Humorous Intentions
TTITLE2=Kansas City
TTITLE3=Kansas City Shout
TTITLE4=Little Suede Shoes
TTITLE5=Shining Stockings
TTITLE6=Poem for George
TTITLE7=Route 66
TTITLE8=Struttin' With Some Bar-B-Que
TTITLE9=There Will Never Be Another You
TTITLE10=Summertime
TTITLE11=Down For the Count
TTITLE12=Mercy, Mercy, Mercy
EXTD=YEAR: 1992
EXTT0=
EXTT1=
EXTT2=
EXTT3=
EXTT4=
EXTT5=
EXTT6=
EXTT7=
EXTT8=
EXTT9=
EXTT10=
EXTT11=
EXTT12=
PLAYORDER=
